<svg width="1024" height="512" viewBox="0 0 271 136" xmlns="http://www.w3.org/2000/svg">
    <g stroke="#8a5831" style="mix-blend-mode:normal">
        <text x="14.184" y="233.953" font-family="Noteworthy" font-size="67.7" font-weight="bold" stroke-width="3.18" style="font-variant-caps:normal;font-variant-east-asian:normal;font-variant-ligatures:normal;font-variant-numeric:normal;line-height:1.25" xml:space="preserve" transform="translate(.235 -67.8)"/>
        <g fill="#ffe28c" stroke-linecap="round" stroke-linejoin="round" stroke-width="2.38"
           color="#000">
            <path
                d="m33.9 88 11.2-1.04 6.2 67 31.4-2.91.989 10.7-42.6 3.95zM106 163c-5.13-.353-9.14-1.44-12-3.27-2.83-1.82-4.81-4.56-5.94-8.22-1.06-3.72-1.38-8.66-.961-14.8l2.51-36.6 11.3.774-2.51 36.6c-.272 3.95-.227 6.95.136 9 .429 1.98 1.27 3.41 2.53 4.28 1.26.868 3.17 1.39 5.74 1.57 3.82.262 6.68.134 8.61-.385 1.98-.515 3.38-1.56 4.18-3.13.862-1.57 1.4-3.94 1.62-7.12l2.69-39.2 11.3.774-4.13 60.1-11.3-.774.04-.583c-3.53 1.06-8.11 1.4-13.7 1.01zM173 160c-6.12 1.64-11.2 1.93-15.3.882-4.07-1.13-7.48-3.68-10.2-7.65-2.77-4.03-5.14-9.72-7.1-17.1-1.97-7.34-2.75-13.4-2.36-18.2.441-4.89 2.18-8.82 5.21-11.8 3.08-3.04 7.71-5.4 13.9-7.05 5.33-1.43 9.84-1.56 13.5-.395 3.73 1.09 7.79 3.76 12.2 8.04l-7.66 8.11c-2.19-2.1-3.99-3.61-5.39-4.51-1.43-.963-2.86-1.49-4.32-1.57-1.47-.145-3.32.083-5.56.683-3.69.99-6.37 2.38-8.04 4.17-1.68 1.73-2.56 4.12-2.66 7.17-.03 3.04.661 7.19 2.07 12.5 1.41 5.27 2.89 9.22 4.44 11.8 1.6 2.6 3.54 4.26 5.82 5 2.26.673 5.17.531 8.75-.426 2.18-.584 3.9-1.31 5.16-2.19 1.26-.875 2.3-2.06 3.13-3.56.875-1.58 1.76-3.84 2.67-6.77l10.6 3.21c-1.73 5.91-3.96 10.3-6.69 13.2-2.67 2.87-6.7 5.03-12.1 6.47z"
                style="font-feature-settings:normal;font-variant-alternates:normal;font-variant-caps:normal;font-variant-east-asian:normal;font-variant-ligatures:normal;font-variant-numeric:normal;font-variant-position:normal;font-variation-settings:normal;inline-size:0;isolation:auto;mix-blend-mode:normal;paint-order:fill markers stroke;shape-margin:0;shape-padding:0;text-decoration-color:#000;text-decoration-line:none;text-decoration-style:solid;text-indent:0;text-orientation:mixed;text-transform:none;white-space:normal"
                transform="translate(.235 -67.8)"/>
            <path
                d="M193 184c-2.51 0-4.67-.357-6.49-1.07-1.82-.65-3.82-1.79-6.02-3.41l4.51-9.84c2.63 1.62 4.36 2.63 5.17 3.02.815.39 1.76.585 2.82.585 2.19 0 3.95-.325 5.27-.975 1.38-.585 2.57-1.69 3.57-3.31 1.07-1.56 2.1-3.87 3.1-6.92l-19.6-57.4h11.8l13.7 42.1 13.9-42.1h11.9l-20.3 58.3c-1.88 5.33-3.82 9.49-5.83 12.5-2.01 2.99-4.42 5.17-7.24 6.53-2.76 1.36-6.21 2.05-10.3 2.05z"
                style="font-feature-settings:normal;font-variant-alternates:normal;font-variant-caps:normal;font-variant-east-asian:normal;font-variant-ligatures:normal;font-variant-numeric:normal;font-variant-position:normal;font-variation-settings:normal;inline-size:0;isolation:auto;mix-blend-mode:normal;paint-order:fill markers stroke;shape-margin:0;shape-padding:0;text-decoration-color:#000;text-decoration-line:none;text-decoration-style:solid;text-indent:0;text-orientation:mixed;text-transform:none;white-space:normal"
                transform="translate(.235 -67.8)"/>
        </g>
    </g>
</svg>
