<svg width="1024" height="600" viewBox="0 0 271 159" xmlns="http://www.w3.org/2000/svg" xmlns:xlink="http://www.w3.org/1999/xlink"><defs><linearGradient id="dfsb"><stop stop-color="#61dae8" offset="0"/><stop stop-color="#7dff62" offset="1"/></linearGradient><linearGradient id="dfsa" x1="78.6" x2="206" y1="147" y2="118" gradientUnits="userSpaceOnUse" xlink:href="#dfsb"/></defs><g style="mix-blend-mode:normal"><g transform="matrix(1.65 0 0 1.65 -96.9 -138)" fill="url(#dfsa)" stroke="#0d121c" stroke-linejoin="round" stroke-width="1.28" style="font-variant-caps:normal;font-variant-east-asian:normal;font-variant-ligatures:normal;font-variant-numeric:normal;mix-blend-mode:normal" aria-label="Lucy"><path d="M108 148q-9.14 3.3-19.3 3.3-7.96 0-11.2-5.59-2.46-4.32-2.46-12.9 0-5 .762-14.8.847-9.82.847-14.8 0-.931-.169-2.96-.169-2.03-.169-3.05t.169-2.29q1.69-2.03 4.15-2.03 2.37 0 3.64 3.05 1.02 2.37 1.02 5.08 0 5.76-1.1 17.1-1.1 11.3-1.1 17 0 9.99 5.67 9.99 2.54 0 7.28-1.69 4.74-1.78 7.28-1.78 2.37 0 3.64 2.12 1.02 1.69 1.02 4.23zM141 120q0 2.62-.677 7.96-.593 5.25-.593 7.96 0 2.37.169 7.11.254 4.66.254 6.94 0 1.95-3.3 1.95-3.39 0-4.32-3.3-3.22 2.12-6.27 2.12-2.46 0-5.59-1.27-3.13-1.35-4.4-3.22-2.46-3.56-2.46-11.4 0-2.71.169-9.48.254-6.01.169-9.4 2.54-1.86 4.23-1.86 4.06 0 4.06 3.98 0 1.35-.423 4.06-.339 2.71-.339 4.06v11.9q0 2.03 1.1 4.23 1.35 2.54 3.22 2.54 3.64 0 5.42-4.66 1.19-3.22 1.19-7.79v-10.2q0-1.95-1.02-4.83 2.12-1.95 4.06-1.95 2.03 0 3.64 1.27 1.69 1.27 1.69 3.22zM174 141q0 2.62-3.98 6.18-3.56 3.3-6.43 4.15-2.79.847-5.33.847-6.69 0-10.5-4.23-3.73-4.23-3.73-10.9 0-6.52 3.47-14.6 4.15-9.65 9.65-9.65 3.05 0 7.37 2.37 4.57 2.62 5.33 5.25.677 2.29.677 5.16 0 2.62-1.1 5.93-1.35 4.23-3.39 4.23-1.44 0-2.71-.847-1.52-.931-1.52-2.29 0-.0847.762-1.95.423-.847.423-4.66 0-3.13-.254-4.06-.508-2.62-2.37-2.62-4.15 0-6.43 7.2-1.69 5.33-1.69 10.8 0 9.06 5.76 9.06 2.29 0 5.25-2.37 2.71-2.2 3.81-4.49 1.35-2.71 3.3-2.71 1.27 0 2.46 1.52 1.19 1.44 1.19 2.71zM206 118q-.762 4.23-1.44 8.38-.847 4.91-.847 8.38v23q0 6.27-3.64 9.57-3.56 3.3-9.82 3.3-4.06 0-8.97-2.12-5.84-2.46-5.84-5.93 0-1.19.931-2.03 1.02-.762 2.2-.762.762 0 3.64 2.29 2.88 2.29 6.6 2.29 4.74 0 6.35-3.47 1.19-2.37 1.19-7.62 0-1.95-.0847-3.22-2.79 1.86-6.27 1.86-6.35 0-9.82-4.57-3.13-4.15-3.13-10.6 0-.677.847-21.3 2.54-1.1 4.06-1.1 1.69 0 5 2.03-2.03 5.08-2.03 20.3 0 9.74 4.91 9.74 3.64 0 5.59-6.1 1.44-4.4 1.44-9.14v-10.3q0 .0847-.254-2.79 3.47-1.69 5.16-1.69 1.78 0 4.23 1.61z" style="font-variant-caps:normal;font-variant-east-asian:normal;font-variant-ligatures:normal;font-variant-numeric:normal"/></g></g></svg>